<svg width="30" height="35" viewBox="0 0 30 35" fill="none" xmlns="http://www.w3.org/2000/svg">
<g clip-path="url(#clip0_674_35704)">
<path d="M2.14286 31.0715C2.14286 32.846 3.58259 34.2857 5.35714 34.2857H24.6429C26.4174 34.2857 27.8571 32.846 27.8571 31.0715V8.57145H2.14286V31.0715ZM20.3571 13.9286C20.3571 13.3326 20.8326 12.8572 21.4286 12.8572C22.0246 12.8572 22.5 13.3343 22.5 13.9286V28.9286C22.5 29.5229 22.0229 30 21.4286 30C20.8343 30 20.3571 29.5229 20.3571 28.9286V13.9286ZM13.9286 13.9286C13.9286 13.3326 14.404 12.8572 15 12.8572C15.596 12.8572 16.0714 13.3343 16.0714 13.9286V28.9286C16.0714 29.5229 15.5943 30 15 30C14.4057 30 13.9286 29.5229 13.9286 28.9286V13.9286ZM7.5 13.9286C7.5 13.3326 7.97545 12.8572 8.57143 12.8572C9.16741 12.8572 9.64286 13.3343 9.64286 13.9286V28.9286C9.64286 29.5246 9.16741 30 8.57143 30C7.97545 30 7.5 29.5229 7.5 28.9286V13.9286ZM28.9286 2.14288H21.4286L20.6531 0.591988C20.4717 0.229042 20.1007 -0.000244141 19.6949 -0.000244141H10.3058C9.89993 -0.000244141 9.52902 0.229042 9.34754 0.591988L8.57143 2.14288H1.07143C0.479732 2.14288 0 2.62248 0 3.21431V5.35717C0 5.94886 0.479732 6.42859 1.07143 6.42859H28.9286C29.5204 6.42859 30 5.94886 30 5.35717V3.21431C30 2.62235 29.5179 2.14288 28.9286 2.14288Z" fill="white"/>
</g>
<defs>
<clipPath id="clip0_674_35704">
<rect width="30" height="34.2857" fill="white"/>
</clipPath>
</defs>
</svg>
